# xmcd
#
# Track frame offsets:
#	150
#	14955
#	29902
#	43750
#	57861
#	72037
#	90438
#	103493
#	116698
#	133242
#	150733
#	164977
#	186014
#	199175
#
# Disc length: 2952 seconds
#
# Revision: 3
# Processed by: cddbd v1.5.2PL0 Copyright (c) Steve Scherf et al.
# Submitted via: EasyCDDAExtractor 10.2.0.1
#
DISCID=d80b860e
DTITLE=Various Artist - An Offer You Can't Refuse
DYEAR=1999
DGENRE=Blues
TTITLE0=Walter Horton - Easy
TTITLE1=Walter Horton - Have A Good Time
TTITLE2=Walter Horton - Mean Mistreater
TTITLE3=Walter Horton - In The Mood
TTITLE4=Walter Horton - West Side Blues
TTITLE5=Walter Horton - Louise
TTITLE6=Walter Horton - Tin Pan Alley
TTITLE7=Walter Horton - Walter's Boogie, This Is It
TTITLE8=Paul Butterfield - Everything's Gonna Be Alright
TTITLE9=Paul Butterfield - Poor Boy
TTITLE10=Paul Butterfield - Got My Mojo Working
TTITLE11=Paul Butterfield - Last Night
TTITLE12=Paul Butterfield - Loaded
TTITLE13=Paul Butterfield - One Room Country Shack (Bonus)
EXTD=
EXTT0=
EXTT1=
EXTT2=
EXTT3=
EXTT4=
EXTT5=
EXTT6=
EXTT7=
EXTT8=
EXTT9=
EXTT10=
EXTT11=
EXTT12=
EXTT13=
PLAYORDER=
